<mxfile host="app.diagrams.net" modified="2023-11-12T20:26:45.527Z" agent="Mozilla/5.0 (Windows NT 10.0; Win64; x64) AppleWebKit/537.36 (KHTML, like Gecko) Chrome/119.0.0.0 Safari/537.36" etag="P0UOS6UpM35Y_v9sMJ7U" version="22.1.0" type="device">
  <diagram name="Page-1" id="03hTvUpX5mrRDOfapEEl">
    <mxGraphModel dx="1434" dy="746" grid="1" gridSize="10" guides="1" tooltips="1" connect="1" arrows="1" fold="1" page="1" pageScale="1" pageWidth="827" pageHeight="1169" math="0" shadow="0">
      <root>
        <mxCell id="0" />
        <mxCell id="1" parent="0" />
        <mxCell id="5P120Gad0GOemvxBLNkH-1" value="" style="sketch=0;points=[[0.5,0,0],[1,0.5,0],[0.5,1,0],[0,0.5,0],[0.145,0.145,0],[0.8555,0.145,0],[0.855,0.8555,0],[0.145,0.855,0]];verticalLabelPosition=bottom;html=1;verticalAlign=top;aspect=fixed;align=center;pointerEvents=1;shape=mxgraph.cisco19.rect;prIcon=router;fillColor=#FAFAFA;strokeColor=#005073;" vertex="1" parent="1">
          <mxGeometry x="87.5" y="230" width="80" height="80" as="geometry" />
        </mxCell>
        <mxCell id="5P120Gad0GOemvxBLNkH-2" value="&lt;h1&gt;Out Gateway&lt;/h1&gt;" style="text;html=1;strokeColor=none;fillColor=none;spacing=5;spacingTop=-20;whiteSpace=wrap;overflow=hidden;rounded=0;" vertex="1" parent="1">
          <mxGeometry x="30" y="180" width="160" height="40" as="geometry" />
        </mxCell>
        <mxCell id="5P120Gad0GOemvxBLNkH-3" value="" style="endArrow=none;html=1;rounded=0;entryX=0;entryY=0.5;entryDx=0;entryDy=0;entryPerimeter=0;" edge="1" parent="1" target="5P120Gad0GOemvxBLNkH-1">
          <mxGeometry width="50" height="50" relative="1" as="geometry">
            <mxPoint y="270" as="sourcePoint" />
            <mxPoint x="85" y="330" as="targetPoint" />
          </mxGeometry>
        </mxCell>
        <mxCell id="5P120Gad0GOemvxBLNkH-7" value="&lt;span style=&quot;font-size: 24px;&quot;&gt;Internet&lt;/span&gt;" style="ellipse;shape=cloud;whiteSpace=wrap;html=1;" vertex="1" parent="1">
          <mxGeometry x="240" y="370" width="240" height="150" as="geometry" />
        </mxCell>
        <mxCell id="5P120Gad0GOemvxBLNkH-8" value="&lt;span style=&quot;font-size: 24px;&quot;&gt;Other&lt;br&gt;operator&lt;/span&gt;" style="ellipse;shape=cloud;whiteSpace=wrap;html=1;" vertex="1" parent="1">
          <mxGeometry x="360" y="270" width="240" height="150" as="geometry" />
        </mxCell>
        <mxCell id="5P120Gad0GOemvxBLNkH-9" value="&lt;span style=&quot;font-size: 24px;&quot;&gt;Fixe-lined&lt;br&gt;telephony&lt;/span&gt;" style="ellipse;shape=cloud;whiteSpace=wrap;html=1;" vertex="1" parent="1">
          <mxGeometry x="340" y="135" width="240" height="150" as="geometry" />
        </mxCell>
        <mxCell id="5P120Gad0GOemvxBLNkH-10" value="&lt;span style=&quot;font-size: 24px;&quot;&gt;Operator services&lt;br&gt;(IMS)&lt;br&gt;&lt;/span&gt;" style="ellipse;shape=cloud;whiteSpace=wrap;html=1;" vertex="1" parent="1">
          <mxGeometry x="260" y="10" width="240" height="150" as="geometry" />
        </mxCell>
        <mxCell id="5P120Gad0GOemvxBLNkH-11" value="" style="endArrow=none;html=1;rounded=0;entryX=0.31;entryY=0.8;entryDx=0;entryDy=0;entryPerimeter=0;exitX=1;exitY=0.5;exitDx=0;exitDy=0;exitPerimeter=0;" edge="1" parent="1" source="5P120Gad0GOemvxBLNkH-1" target="5P120Gad0GOemvxBLNkH-10">
          <mxGeometry width="50" height="50" relative="1" as="geometry">
            <mxPoint x="200" y="300" as="sourcePoint" />
            <mxPoint x="440" y="150" as="targetPoint" />
          </mxGeometry>
        </mxCell>
        <mxCell id="5P120Gad0GOemvxBLNkH-12" value="" style="endArrow=none;html=1;rounded=0;exitX=1;exitY=0.5;exitDx=0;exitDy=0;exitPerimeter=0;entryX=0.16;entryY=0.55;entryDx=0;entryDy=0;entryPerimeter=0;" edge="1" parent="1" source="5P120Gad0GOemvxBLNkH-1" target="5P120Gad0GOemvxBLNkH-9">
          <mxGeometry width="50" height="50" relative="1" as="geometry">
            <mxPoint x="390" y="200" as="sourcePoint" />
            <mxPoint x="440" y="150" as="targetPoint" />
          </mxGeometry>
        </mxCell>
        <mxCell id="5P120Gad0GOemvxBLNkH-13" value="" style="endArrow=none;html=1;rounded=0;exitX=0.16;exitY=0.55;exitDx=0;exitDy=0;exitPerimeter=0;entryX=1;entryY=0.5;entryDx=0;entryDy=0;entryPerimeter=0;" edge="1" parent="1" source="5P120Gad0GOemvxBLNkH-8" target="5P120Gad0GOemvxBLNkH-1">
          <mxGeometry width="50" height="50" relative="1" as="geometry">
            <mxPoint x="390" y="400" as="sourcePoint" />
            <mxPoint x="440" y="350" as="targetPoint" />
          </mxGeometry>
        </mxCell>
        <mxCell id="5P120Gad0GOemvxBLNkH-14" value="" style="endArrow=none;html=1;rounded=0;entryX=1;entryY=0.5;entryDx=0;entryDy=0;entryPerimeter=0;exitX=0.4;exitY=0.1;exitDx=0;exitDy=0;exitPerimeter=0;" edge="1" parent="1" source="5P120Gad0GOemvxBLNkH-7" target="5P120Gad0GOemvxBLNkH-1">
          <mxGeometry width="50" height="50" relative="1" as="geometry">
            <mxPoint x="87.5" y="430" as="sourcePoint" />
            <mxPoint x="137.5" y="380" as="targetPoint" />
          </mxGeometry>
        </mxCell>
      </root>
    </mxGraphModel>
  </diagram>
</mxfile>
